<svg width="163" height="24" viewBox="0 0 163 24" fill="none" xmlns="http://www.w3.org/2000/svg">
<path d="M96.8015 15.504C98.7228 15.504 100.28 13.9453 100.28 12.0225C100.28 10.0997 98.7228 8.54099 96.8015 8.54099C94.8802 8.54099 93.3228 10.0997 93.3228 12.0225C93.3228 13.9453 94.8802 15.504 96.8015 15.504Z" fill="#CDDC36"/>
<path d="M84.7944 11.1525L90.2801 5.66251H86.5675C85.5475 7.32479 84.9395 9.20715 84.7944 11.1525Z" fill="#DAE233"/>
<path d="M95.965 0.00601196C93.9511 0.133327 92.0042 0.779196 90.313 1.88101V5.66402L95.965 0.00601196Z" fill="#DAE233"/>
<path d="M108.775 11.1525L103.29 5.66251H107.002C108.037 7.3181 108.646 9.20412 108.775 11.1525Z" fill="#DAE233"/>
<path d="M97.6379 0.00601196C99.6519 0.133394 101.599 0.779258 103.29 1.88101V5.66402L97.6379 0.00601196Z" fill="#DAE233"/>
<path d="M90.3131 12.792H84.8274C84.9566 14.7404 85.5658 16.6265 86.6005 18.282H90.3131V12.792Z" fill="#DAE233"/>
<path d="M103.324 12.792H108.81C108.681 14.7404 108.071 16.6264 107.037 18.282H103.324V12.792Z" fill="#DAE233"/>
<path d="M95.9651 5.5965L90.4195 11.1465H84.7944L95.9651 0V5.5965Z" fill="#46B746"/>
<path d="M97.6377 23.9715C99.6625 23.8994 101.629 23.2743 103.324 22.164V12.792L97.6377 18.483V23.9715Z" fill="#46B746"/>
<path d="M95.9321 18.45L90.313 12.8265V22.1985C92.0094 23.2793 93.9567 23.9021 95.965 24.006V18.456L95.9321 18.45Z" fill="#46B746"/>
<path d="M97.6377 5.59652L103.183 11.1465H108.802L97.6377 0.00601196V5.59652Z" fill="#46B746"/>
<path d="M17.6954 22.6275C17.5118 22.6441 17.3282 22.5965 17.1757 22.4929C17.0232 22.3892 16.9113 22.2359 16.8591 22.059L14.3111 15.1305H4.18809L1.71354 22.059C1.65355 22.231 1.53985 22.3792 1.38924 22.4816C1.23863 22.584 1.05911 22.6351 0.877203 22.6275C0.730974 22.6263 0.587318 22.5889 0.459098 22.5185C0.330878 22.4481 0.222097 22.3471 0.142496 22.2243C0.0628936 22.1015 0.0149555 21.9609 0.0029736 21.815C-0.00900831 21.6692 0.0153404 21.5226 0.0738388 21.3885L6.62966 3.27902C6.76566 2.68022 7.10156 2.1457 7.58194 1.76366C8.06232 1.38161 8.65848 1.17486 9.27207 1.17752C9.88462 1.17878 10.4795 1.38322 10.9636 1.75885C11.4476 2.13449 11.7937 2.66012 11.9475 3.25352L18.5422 21.396C18.5771 21.4928 18.5997 21.5936 18.6097 21.696C18.6045 21.9386 18.507 22.1701 18.3371 22.3432C18.1672 22.5163 17.9377 22.618 17.6954 22.6275V22.6275ZM4.85206 13.356H13.6486L10.1699 3.61501C10.13 3.4034 10.0191 3.21177 9.85557 3.07183C9.69203 2.93189 9.48564 2.85204 9.27057 2.84551C8.87088 2.84551 8.57112 3.11353 8.37128 3.64953L4.85206 13.356Z" fill="#27A365"/>
<path d="M24.5224 3.21902H17.9636C17.8452 3.22599 17.7266 3.20867 17.615 3.1681C17.5035 3.12752 17.4015 3.06456 17.3151 2.98309C17.2288 2.90162 17.16 2.80335 17.113 2.69431C17.066 2.58528 17.0417 2.46777 17.0417 2.34902C17.0417 2.23027 17.066 2.11279 17.113 2.00375C17.16 1.89472 17.2288 1.79644 17.3151 1.71497C17.4015 1.6335 17.5035 1.57054 17.615 1.52997C17.7266 1.48939 17.8452 1.47208 17.9636 1.47904H32.7135C32.944 1.47904 33.1651 1.5707 33.3282 1.73385C33.4912 1.89701 33.5828 2.11828 33.5828 2.34902C33.5828 2.57976 33.4912 2.80105 33.3282 2.96421C33.1651 3.12737 32.944 3.21902 32.7135 3.21902H26.2626V21.8295C26.2626 21.9438 26.2401 22.0569 26.1964 22.1625C26.1527 22.268 26.0887 22.3639 26.008 22.4447C25.9272 22.5255 25.8314 22.5896 25.7259 22.6333C25.6205 22.677 25.5074 22.6995 25.3933 22.6995C25.2791 22.6995 25.1661 22.677 25.0606 22.6333C24.9551 22.5896 24.8593 22.5255 24.7786 22.4447C24.6978 22.3639 24.6338 22.268 24.5901 22.1625C24.5464 22.0569 24.5239 21.9438 24.5239 21.8295L24.5224 3.21902Z" fill="#27A365"/>
<path d="M51.6122 15.504C51.6165 16.4786 51.423 17.4439 51.0435 18.3414C50.664 19.239 50.1064 20.05 49.4044 20.7255C48.6507 21.4723 47.7502 22.0543 46.76 22.4346C45.7698 22.815 44.7114 22.9854 43.652 22.935C42.5412 22.9581 41.4368 22.7599 40.4032 22.352C39.3696 21.9441 38.4274 21.3346 37.6312 20.559C36.0039 18.9624 35.0365 16.8113 34.9214 14.5335C34.7876 12.8963 34.7876 11.2508 34.9214 9.61354C35.0373 7.35555 36.0059 5.22592 37.6312 3.65554C38.4228 2.87133 39.3635 2.25394 40.3976 1.83991C41.4318 1.42587 42.5384 1.22359 43.652 1.24502C45.2575 1.20102 46.8387 1.64428 48.1878 2.51653C49.5369 3.38878 50.5906 4.64919 51.2105 6.13204C51.262 6.26908 51.28 6.41647 51.2629 6.56188C51.2458 6.70729 51.1941 6.84648 51.1122 6.9678C51.0303 7.08913 50.9206 7.18906 50.7922 7.25922C50.6638 7.32937 50.5204 7.3677 50.3742 7.37102C50.1914 7.38318 50.0098 7.33384 49.8582 7.23083C49.7067 7.12783 49.5939 6.97706 49.5378 6.80253C49.0367 5.6626 48.211 4.6958 47.1639 4.02296C46.1168 3.35012 44.8947 3.00108 43.6505 3.01952C42.7849 3.00648 41.9253 3.1655 41.1215 3.48735C40.3178 3.80921 39.5859 4.2875 38.9682 4.89452C37.6647 6.11949 36.8754 7.79473 36.7604 9.58054C36.5932 11.2499 36.5932 12.9317 36.7604 14.601C36.8776 16.3887 37.6518 18.0697 38.9337 19.32C39.5579 19.9275 40.2957 20.4057 41.1048 20.7275C41.9139 21.0492 42.7784 21.2081 43.649 21.195C45.2665 21.2657 46.8524 20.731 48.0975 19.695C48.6654 19.21 49.1167 18.6029 49.4177 17.9191C49.7187 17.2353 49.8617 16.4923 49.8361 15.7455V13.395H44.8195C44.589 13.395 44.3679 13.3034 44.2049 13.1402C44.0418 12.9771 43.9502 12.7558 43.9502 12.525C43.9502 12.2943 44.0418 12.073 44.2049 11.9098C44.3679 11.7467 44.589 11.655 44.8195 11.655H49.9365C50.1556 11.634 50.3767 11.6605 50.5846 11.7329C50.7925 11.8052 50.9824 11.9216 51.1412 12.0741C51.3001 12.2267 51.4241 12.4117 51.5049 12.6167C51.5856 12.8216 51.6212 13.0416 51.6092 13.2615L51.6122 15.504Z" fill="#27A365"/>
<path d="M57.1667 21.8971C57.1756 22.0327 57.156 22.1687 57.1092 22.2964C57.0624 22.424 56.9894 22.5404 56.895 22.6382C56.8006 22.7359 56.6868 22.8129 56.5609 22.864C56.435 22.9151 56.2998 22.9393 56.164 22.9351C56.0298 22.9337 55.8972 22.9057 55.7739 22.8526C55.6506 22.7995 55.5391 22.7225 55.4458 22.6259C55.3525 22.5293 55.2793 22.4152 55.2305 22.2901C55.1817 22.1649 55.1581 22.0314 55.1613 21.8971V20.2576C55.0609 18.9181 57.2357 18.9181 57.1682 20.2576L57.1667 21.8971Z" fill="#27A365"/>
<path d="M58.0706 2.44954C58.027 2.3155 58.0165 2.17286 58.0402 2.03389C58.0638 1.89491 58.1209 1.76376 58.2064 1.65175C58.292 1.53973 58.4034 1.45019 58.5312 1.39084C58.659 1.33149 58.7992 1.30412 58.9399 1.31106C59.0413 1.30055 59.1438 1.31055 59.2412 1.34049C59.3387 1.37043 59.4291 1.41969 59.5071 1.48533C59.5852 1.55096 59.6492 1.63164 59.6955 1.72256C59.7417 1.81348 59.7692 1.91278 59.7763 2.01455L64.0239 21.0946C64.0239 21.3286 64.2577 21.2626 64.3237 21.0946L69.1394 2.88604C69.206 2.45253 69.4309 2.05916 69.7706 1.78207C70.1104 1.50498 70.5407 1.36386 70.9784 1.38604C71.4146 1.37015 71.8417 1.51357 72.1801 1.78956C72.5185 2.06554 72.745 2.45525 72.8175 2.88604L77.5327 21.129C77.6002 21.297 77.8325 21.363 77.8325 21.129L82.1476 2.07905C82.1659 1.86356 82.2665 1.66342 82.4283 1.52014C82.5902 1.37686 82.801 1.30144 83.0169 1.30954C83.1589 1.29476 83.3022 1.31739 83.4327 1.37519C83.5632 1.43299 83.6764 1.52393 83.7609 1.63902C83.8455 1.75411 83.8985 1.88934 83.9147 2.03125C83.9309 2.17317 83.9097 2.31685 83.8532 2.44805L79.5067 21.4606C79.4133 21.87 79.1837 22.2356 78.8556 22.4975C78.5275 22.7593 78.1203 22.9019 77.7006 22.9019C77.2809 22.9019 76.8737 22.7593 76.5456 22.4975C76.2175 22.2356 75.9879 21.87 75.8945 21.4606L71.0788 3.21755C71.0788 3.17777 71.063 3.13962 71.0349 3.11149C71.0068 3.08336 70.9687 3.06754 70.929 3.06754C70.8892 3.06754 70.8511 3.08336 70.823 3.11149C70.7949 3.13962 70.7791 3.17777 70.7791 3.21755L65.8959 21.4606C65.8025 21.87 65.573 22.2356 65.2449 22.4975C64.9167 22.7593 64.5095 22.9019 64.0899 22.9019C63.6702 22.9019 63.263 22.7593 62.9348 22.4975C62.6067 22.2356 62.3772 21.87 62.2838 21.4606L58.0706 2.44954Z" fill="#5C5D5D"/>
<path d="M125.9 22.767C125.766 22.7612 125.635 22.7286 125.514 22.6712C125.393 22.6137 125.285 22.5325 125.197 22.4325L119.243 14.9685C119.071 14.6693 118.822 14.4215 118.522 14.2508C118.223 14.0802 117.883 13.9929 117.538 13.998H113.323V21.864C113.314 22.0946 113.22 22.3138 113.06 22.4798C112.899 22.6457 112.684 22.7469 112.454 22.764C112.222 22.7522 112.003 22.6528 111.842 22.4857C111.68 22.3186 111.588 22.0964 111.584 21.864V3.21899C111.574 2.98769 111.612 2.75687 111.696 2.54113C111.78 2.3254 111.908 2.12949 112.072 1.96586C112.236 1.80223 112.431 1.67445 112.647 1.59063C112.863 1.50682 113.093 1.46881 113.324 1.47901H119.446C121.197 1.39262 122.913 1.99317 124.228 3.153C124.852 3.74926 125.339 4.47362 125.657 5.27632C125.974 6.07901 126.114 6.94099 126.067 7.80299C126.067 11.3175 123.993 13.293 120.522 13.761L126.608 21.3255C126.729 21.4897 126.788 21.6907 126.776 21.894C126.78 22.0101 126.76 22.1258 126.718 22.2338C126.675 22.3419 126.61 22.4399 126.528 22.5219C126.446 22.6038 126.348 22.6679 126.239 22.71C126.131 22.7522 126.016 22.7716 125.9 22.767V22.767ZM113.357 12.2235H118.976C122.556 12.2235 124.327 10.7505 124.327 7.73849C124.327 4.96049 122.622 3.21899 119.411 3.21899H113.357V12.2235Z" fill="#5C5D5D"/>
<path d="M129.68 2.24849C129.68 2.01775 129.771 1.79648 129.934 1.63332C130.097 1.47017 130.318 1.37851 130.549 1.37851C130.779 1.37851 131 1.47017 131.163 1.63332C131.327 1.79648 131.418 2.01775 131.418 2.24849V20.826H141.988C142.223 20.8373 142.445 20.9357 142.611 21.1021C142.777 21.2685 142.876 21.4909 142.887 21.726C142.875 21.9581 142.776 22.1771 142.609 22.3386C142.442 22.5001 142.22 22.5921 141.988 22.596H131.453C131.217 22.606 130.982 22.5669 130.762 22.4813C130.543 22.3956 130.343 22.2652 130.177 22.0984C130.01 21.9316 129.88 21.732 129.794 21.5122C129.709 21.2924 129.67 21.0572 129.68 20.8215V2.24849Z" fill="#5C5D5D"/>
<path d="M148.042 22.632C147.816 22.6446 147.59 22.6088 147.379 22.527C147.168 22.4452 146.977 22.3193 146.819 22.1577C146.661 21.9961 146.539 21.8025 146.461 21.59C146.383 21.3774 146.352 21.1507 146.369 20.925V3.15147C146.352 2.92578 146.383 2.69906 146.461 2.48647C146.539 2.27388 146.661 2.08032 146.819 1.91873C146.977 1.75714 147.168 1.63124 147.379 1.54945C147.59 1.46767 147.816 1.43187 148.042 1.44446H153.264C154.49 1.36298 155.72 1.54144 156.872 1.96819C158.025 2.39494 159.075 3.06037 159.953 3.92097C161.601 5.68144 162.521 8.00187 162.528 10.4145C162.595 11.5179 162.595 12.6245 162.528 13.728C162.491 16.1336 161.56 18.4393 159.915 20.1945C159.034 21.0382 157.987 21.6908 156.842 22.1112C155.697 22.5317 154.477 22.711 153.259 22.638H148.042V22.632ZM160.782 10.347C160.515 5.86196 158.072 3.21748 153.223 3.21748H148.139V20.8245H153.223C158.073 20.8245 160.548 18.147 160.782 13.695C160.85 12.5805 160.851 11.463 160.785 10.3485L160.782 10.347Z" fill="#5C5D5D"/>
<path d="M90.307 22.206V12.8265L95.9186 18.456H95.9516V24.006C93.9463 23.9041 92.0016 23.284 90.307 22.206V22.206ZM97.6213 18.4905L103.299 12.7995V22.1715C101.607 23.2815 99.6432 23.9066 97.6213 23.979V18.4905ZM103.299 18.2895V12.792H108.777C108.648 14.74 108.04 16.6259 107.007 18.282L103.299 18.2895ZM86.599 18.2895C85.5649 16.6312 84.9568 14.7426 84.8289 12.792H90.307V18.282L86.599 18.2895ZM93.3137 12.0225C93.3149 11.3354 93.5195 10.664 93.9018 10.0933C94.2842 9.52251 94.8269 9.07798 95.4616 8.81585C96.0963 8.55372 96.7943 8.48575 97.4676 8.62053C98.1408 8.75531 98.7591 9.08679 99.2441 9.57308C99.7292 10.0594 100.059 10.6787 100.193 11.3527C100.326 12.0267 100.257 12.7252 99.9943 13.3599C99.7312 13.9946 99.2861 14.5371 98.7152 14.9187C98.1442 15.3003 97.473 15.504 96.7864 15.504C96.33 15.5036 95.8781 15.4133 95.4565 15.2381C95.035 15.0629 94.6521 14.8063 94.3296 14.4831C94.0071 14.1598 93.7514 13.7761 93.5771 13.3539C93.4028 12.9317 93.3133 12.4793 93.3137 12.0225V12.0225ZM103.167 11.1525L97.6213 5.60251V0.00601196C99.6329 0.133188 101.577 0.779121 103.266 1.88101V5.64601L103.282 5.66251H106.978C108.005 7.30834 108.611 9.18116 108.745 11.1165L108.777 11.1525H103.167ZM84.7959 11.1525L84.8364 11.106C84.9871 9.17721 85.5927 7.31167 86.6035 5.66251H90.2906L90.307 5.64601V1.88101C91.9954 0.779121 93.9399 0.133188 95.9516 0.00601196V5.59651L90.406 11.1465L84.7959 11.1525Z" fill="url(#paint0_linear_3_41)"/>
<defs>
<linearGradient id="paint0_linear_3_41" x1="84.7959" y1="10.47" x2="96.797" y2="23.9966" gradientUnits="userSpaceOnUse">
<stop stop-color="#00A854"/>
<stop offset="1" stop-color="#004D25"/>
</linearGradient>
</defs>
</svg>
